# xmcd
#
# Track frame offsets:
#   150
#   12244
#   23166
#   35483
#   50018
#   66774
#   81244
#   93341
#   108029
#   122421
#   133619
#   147917
#   179083
#   192468
#
# Disc length: 2769 seconds
#
# Revision: 0
# Processed by: cddbd v1.5.2PL0 Copyright (c) Steve Scherf et al.
# Submitted via: uFREEDB ActiveX Control 1.5
#
DISCID=bf0acf0e
DTITLE=TRADI플O - TRADI플O
DYEAR=1900
DGENRE=Country
TTITLE0=TRADI플O 1
TTITLE1=TRADI플O2
TTITLE2=TRADI플O3
TTITLE3=TRADI플O4
TTITLE4=TRADI플O5
TTITLE5=TRADI플O6
TTITLE6=TRADI플O7
TTITLE7=TRADI플O8
TTITLE8=TRADI플O9
TTITLE9=TRADI플O10
TTITLE10=TRADI플O11
TTITLE11=TRADI플O12
TTITLE12=TRADI플O13
TTITLE13=TRADI플O14
EXTD=
EXTT0=
EXTT1=
EXTT2=
EXTT3=
EXTT4=
EXTT5=
EXTT6=
EXTT7=
EXTT8=
EXTT9=
EXTT10=
EXTT11=
EXTT12=
EXTT13=
PLAYORDER=
